<svg width="25" height="20" viewBox="0 0 25 20" fill="none" xmlns="http://www.w3.org/2000/svg">
<path opacity="0.5" d="M17.7692 13.1245L17.276 12.7432L15.7409 11.5565L15.4567 11.3369L15.5742 10.9974C15.686 10.6743 15.7453 10.3353 15.7498 9.99342L17.7692 13.1245ZM17.7692 13.1245L18.0343 12.5603M17.7692 13.1245L18.0343 12.5603M18.0343 12.5603C18.3974 11.7879 18.6247 10.9285 18.6248 10.0003M18.0343 12.5603L18.6248 10.0003M12.2558 6.76311C12.547 6.73637 12.8415 6.74957 13.131 6.80312C13.6233 6.8942 14.0874 7.09947 14.486 7.40244C14.8845 7.70542 15.2065 8.09765 15.426 8.54763C15.6455 8.99759 15.7564 9.49275 15.7498 9.99335L12.2558 6.76311ZM12.2558 6.76311C12.3337 6.99913 12.3743 7.24744 12.3748 7.49912L12.3748 7.51059L12.3743 7.52206C12.3669 7.69029 12.3412 7.85721 12.2976 8.01988L12.1034 8.74572L11.5089 8.28625L8.63349 6.06398L8.1413 5.68358L8.61862 5.28469C9.70728 4.37493 11.0807 3.87605 12.4994 3.875L12.4995 3.875C13.304 3.87456 14.1007 4.03269 14.8441 4.34035C15.5874 4.64802 16.2629 5.09918 16.8317 5.66806C17.4006 6.23693 17.8518 6.91236 18.1594 7.65571C18.4671 8.39907 18.6252 9.19577 18.6248 10.0003M12.2558 6.76311L18.6248 10.0003M12.4998 16.125L12.5044 16.125C12.799 16.1222 13.0928 16.0983 13.3837 16.0533L14.3886 16.8309C13.7707 16.9389 13.1414 17 12.4998 17C7.89939 17 3.87072 14.3214 1.8314 10.3436C1.77776 10.2371 1.74981 10.1195 1.74981 10.0002C1.74981 9.88088 1.77777 9.76324 1.83144 9.65668C2.13729 9.05954 2.50427 8.49895 2.90949 7.95959L6.44041 10.6884C6.78419 13.7423 9.34672 16.125 12.4998 16.125ZM20.1178 14.1747L19.6442 14.5739L20.1343 14.9527L24.4516 18.2894C24.4518 18.2895 24.4519 18.2896 24.452 18.2897C24.478 18.31 24.4949 18.3398 24.499 18.3725C24.5031 18.4054 24.494 18.4386 24.4737 18.4648L23.7066 19.4518L23.7065 19.4518C23.6965 19.4648 23.6839 19.4756 23.6697 19.4837C23.6554 19.4919 23.6397 19.4971 23.6234 19.4991C23.6071 19.5012 23.5905 19.5 23.5747 19.4956C23.5589 19.4913 23.544 19.4838 23.5311 19.4738L23.5298 19.4727L0.548144 1.71078C0.548022 1.71068 0.5479 1.71059 0.547778 1.71049C0.521819 1.69015 0.504946 1.66036 0.500848 1.62763C0.496731 1.59474 0.505847 1.56156 0.526191 1.53539L0.526295 1.53525L1.29304 0.548203C1.29306 0.548182 1.29308 0.548162 1.29309 0.548142C1.30316 0.535201 1.31568 0.524367 1.32993 0.516258C1.3442 0.508136 1.35994 0.502907 1.37623 0.500868C1.39253 0.498829 1.40906 0.500021 1.4249 0.504376C1.44073 0.508732 1.45555 0.516164 1.46851 0.526249L1.46851 0.526252L1.4698 0.527251L6.43934 4.36827L6.69792 4.56813L6.98475 4.41149C8.6764 3.48767 10.5725 3.0024 12.5 3C17.1004 3.00009 21.129 5.67872 23.1683 9.65656C23.2219 9.76304 23.2498 9.88059 23.2498 9.99981C23.2498 10.119 23.2219 10.2366 23.1683 10.3431C22.4154 11.8098 21.3785 13.1123 20.1178 14.1747Z" stroke="#18345E"/>
</svg>
